# xmcd
#
# Track frame offsets: 
#        150
#        29718
#        56665
#        72741
#        94497
#        115665
#        142124
#        201494
#        222412
#        248872
#        277474
#        287867
#
# Disc length: 3941 seconds
#
# Revision: 0
# Processed by: cddbd v1.5.2PL0 Copyright (c) Steve Scherf et al.
# Submitted via: ExactAudioCopy v0.99pb3
#
DISCID=dc0f630c
DTITLE=Mostar Sevdah Reunion - Café Sevdah
DYEAR=2007
DGENRE=Crossover
TTITLE0=Sinoc sam ti Safo dvoru dolazio
TTITLE1=Grana od bora
TTITLE2=Razbolje se lijepa Hajrija
TTITLE3=Otkako je Banja Luka postala
TTITLE4=Cije je ono djevojce
TTITLE5=Ali-pasa na Hercegovini
TTITLE6=Kraj pendzera Jusuf stari
TTITLE7=Bol za majkom
TTITLE8=Evo ovu rumen ruzu
TTITLE9=Gondze ruzo
TTITLE10=Oj djevojko dzidzo moja
TTITLE11='Nako malo
EXTD=
EXTT0=
EXTT1=
EXTT2=
EXTT3=
EXTT4=
EXTT5=
EXTT6=
EXTT7=
EXTT8=
EXTT9=
EXTT10=
EXTT11=
PLAYORDER=
